<svg width="136" height="30" viewBox="0 0 136 30" fill="none" xmlns="http://www.w3.org/2000/svg">
<path fill-rule="evenodd" clip-rule="evenodd" d="M15.5889 0.0833033C18.6993 0.00953592 21.7549 0.910343 24.3282 2.65963C26.9014 4.40891 28.8634 6.91912 29.9397 9.83894C31.016 12.7587 31.1528 15.9421 30.3308 18.9435C29.9671 20.2717 28.5956 21.0536 27.2676 20.6898C25.9395 20.326 25.1578 18.9543 25.5216 17.626C26.0688 15.6277 25.9778 13.5082 25.2612 11.5641C24.5445 9.62011 23.2383 7.94888 21.5251 6.78429C19.812 5.6197 17.7778 5.02002 15.7071 5.06913C13.6364 5.11824 11.6329 5.81368 9.97684 7.05817C8.32082 8.30267 7.09517 10.0339 6.47148 12.0098C5.84778 13.9856 5.85726 16.107 6.49859 18.0772C7.13993 20.0473 8.381 21.7676 10.0481 22.9972C11.7152 24.2269 13.7248 24.9044 15.7959 24.9349C17.1727 24.9553 18.2723 26.0881 18.252 27.4651C18.2317 28.8422 17.099 29.942 15.7222 29.9216C12.6113 29.8757 9.59254 28.858 7.08849 27.011C4.58444 25.164 2.72039 22.5802 1.75714 19.6211C0.793904 16.6621 0.779664 13.4758 1.71642 10.5083C2.65317 7.54071 4.49405 4.94032 6.98149 3.07102L8.47917 5.0646L6.98149 3.07102C9.46893 1.20172 12.4785 0.15707 15.5889 0.0833033Z" fill="#121920"/>
<path d="M27.1634 24.71C27.1634 26.798 25.471 28.4907 23.3834 28.4907C21.2957 28.4907 19.6033 26.798 19.6033 24.71C19.6033 22.622 21.2957 20.9293 23.3834 20.9293C25.471 20.9293 27.1634 22.622 27.1634 24.71Z" fill="#F95A59"/>
<path fill-rule="evenodd" clip-rule="evenodd" d="M61.4567 23.958H56.477L55.7734 23.0379C54.7991 23.4167 53.933 23.6874 53.1753 23.9039C52.4175 24.0663 51.6056 24.1745 50.6854 24.1745C47.6543 24.1745 45.2727 23.4167 43.5947 21.9553C41.8085 20.4397 40.9425 18.1123 40.9425 15.1353C40.9425 12.1041 41.7544 9.77667 43.3241 8.20698C44.9479 6.63729 47.3836 5.82538 50.6854 5.82538C53.8789 5.82538 56.3146 6.69141 57.9926 8.36936C59.454 9.8308 60.1577 11.7253 60.1577 13.9986C60.1577 15.6765 60.1036 16.9215 59.9412 17.6793C59.7247 18.8701 59.1834 20.0067 58.4256 21.0351L61.4567 23.958ZM55.7734 14.9729C55.7734 13.3491 55.4486 12.05 54.745 11.0216C53.8789 9.72254 52.4716 9.07301 50.6313 9.07301C48.8992 9.07301 47.546 9.56016 46.68 10.5886C45.814 11.5629 45.3809 13.0243 45.3809 14.9188C45.3809 17.0297 45.8681 18.5994 46.8965 19.5737C47.8167 20.4397 49.1698 20.8728 50.956 20.8728C52.5799 20.8728 53.7707 20.3856 54.5826 19.4113C55.3945 18.3829 55.7734 16.9215 55.7734 14.9729Z" fill="#F95A59"/>
<path fill-rule="evenodd" clip-rule="evenodd" d="M80.2392 18.3829C80.2392 19.9526 79.698 21.2516 78.6696 22.3342C77.6411 23.4167 76.3421 23.9039 74.7183 23.9039H62.269V20.7104H72.6073C73.311 20.7104 73.9064 20.548 74.3394 20.2232C74.8806 19.8443 75.1513 19.3572 75.1513 18.7077C75.1513 17.1921 74.0687 16.4343 71.9578 16.4343H66.7616C65.246 16.4343 63.9469 15.9472 62.8103 15.027C61.6736 14.1069 61.1323 12.9161 61.1323 11.4546C61.1323 9.88493 61.6736 8.58587 62.8103 7.61158C63.8928 6.63729 65.3543 6.15015 67.1946 6.15015H79.1567V9.18127H68.5478C68.0606 9.18127 67.5735 9.39778 67.1405 9.77667C66.5992 10.1556 66.3827 10.6427 66.3827 11.184C66.3827 11.7794 66.5992 12.3207 67.0863 12.6995C67.5735 13.1326 68.1147 13.2949 68.7643 13.2949H74.5018C76.288 13.2949 77.6953 13.7821 78.7237 14.7023C79.7521 15.6224 80.2392 16.8673 80.2392 18.3829Z" fill="#F95A59"/>
<path fill-rule="evenodd" clip-rule="evenodd" d="M100.699 14.9729C100.699 18.437 99.7251 20.8728 97.8306 22.3883C96.2609 23.5791 93.9876 24.1745 91.0647 24.1745C87.7629 24.1745 85.3272 23.4709 83.7575 22.1177C82.0255 20.6021 81.1594 18.1664 81.1594 14.8105C81.1594 12.05 81.9172 9.88493 83.4869 8.36937C85.1648 6.69143 87.6547 5.87952 91.0106 5.87952C94.6912 5.87952 97.2352 6.69143 98.7508 8.26112C100.05 9.66842 100.699 11.8876 100.699 14.9729ZM96.1527 14.8646C96.1527 13.1326 95.7197 11.7253 94.9077 10.6968C93.9876 9.56017 92.5803 8.96477 90.7941 8.96477C89.0079 8.96477 87.6547 9.56017 86.7345 10.8051C85.9767 11.8335 85.5979 13.1867 85.5979 14.8105C85.5979 16.705 85.9226 18.1123 86.518 19.0324C87.3841 20.2774 88.8996 20.9269 91.2271 20.9269C93.1757 20.9269 94.5289 20.3315 95.2866 19.0866C95.882 18.2205 96.1527 16.7591 96.1527 14.8646Z" fill="#F95A59"/>
<path fill-rule="evenodd" clip-rule="evenodd" d="M118.507 16.4885H106.274V23.8498H101.89V12.9702C101.89 12.3207 101.998 11.5629 102.269 10.751C102.756 9.28953 103.676 8.20698 105.029 7.4492C106.599 6.58316 109.197 6.15015 112.769 6.15015C120.401 6.15015 128.033 6.15015 135.665 6.15015V9.12715H129.062V23.8498H124.948V9.12715C120.726 9.12715 116.721 9.07302 112.499 9.07302C110.875 9.07302 109.738 9.18127 109.089 9.34365C107.952 9.61429 107.194 10.2638 106.707 11.184C106.328 11.8876 106.166 12.6454 106.166 13.5115H118.507V16.4885Z" fill="#F95A59"/>
</svg>
